<?xml version="1.0" encoding="utf-8"?>
<!-- Generator: Adobe Illustrator 19.2.1, SVG Export Plug-In . SVG Version: 6.00 Build 0)  -->
<svg version="1.1" id="Capa_1" xmlns="http://www.w3.org/2000/svg" xmlns:xlink="http://www.w3.org/1999/xlink" x="0px" y="0px"
	 viewBox="0 0 699.1 153.8" style="enable-background:new 0 0 699.1 153.8;" xml:space="preserve">
<style type="text/css">
	.st0{fill:#ffffff;}
</style>
<title>CC_logo_black</title>
<polygon class="st0" points="126,106.9 67.7,140.6 12.5,108.8 12.5,45 67.7,13.2 126,46.8 126,32.4 67.7,-1.3 0,37.8 0,116 
	67.7,155.1 126,121.4 "/>
<polygon class="st0" points="264.5,106.9 206.2,140.6 151,108.8 151,45 206.2,13.2 264.5,46.8 264.5,32.4 206.2,-1.3 138.5,37.8 
	138.5,116 206.2,155.1 264.5,121.4 "/>
<path class="st0" d="M373.8,47.1c-2.8,13.2-13.5,21.7-29.1,21.7c-19.7,0-31.1-13.5-31.1-34.6S325.8,0,345.3,0
	c15,0,25.6,8.5,28.3,21.7l-11.3,1.7c-2-9.1-8.6-13.7-17.4-13.7c-10.7,0-19.1,8.2-19.1,24.5s8.2,24.9,19,24.9
	c9.1,0,15.6-4.5,17.7-13.7L373.8,47.1z"/>
<path class="st0" d="M412.7,40.1c0-5.2-0.5-8.8-2.7-11c-1.8-1.6-4.3-2.4-6.7-2.3c-8.5,0-11.6,6.4-11.6,15.4v25.4h-11.1V1.2h11.1
	v23.5c2.8-4.4,8.1-7.1,15.1-7.1c6.3,0,11,2.1,13.8,6.1c2.1,3.1,3.2,7.3,3.2,13.6v30.3h-11.1L412.7,40.1L412.7,40.1z"/>
<path class="st0" d="M430,43.2c0-15.1,9.7-25.6,24.2-25.6c15.6,0,24.7,11.9,23.8,28.9h-36.8c0.2,8.1,5.6,13.4,13.1,13.4
	c7,0,10.5-3.3,12.2-7.7l10.7,1.4c-2.3,7.3-9.4,15.2-22.7,15.2C438.2,68.8,430,57.5,430,43.2z M441.2,38.3h25.5
	c-0.3-7.5-5.7-12.2-12.4-12.2C447.8,26.1,441.6,29.8,441.2,38.3L441.2,38.3z"/>
<path class="st0" d="M484.9,18.6H496v6.1c2.7-4.5,7.5-7.1,14.4-7.1c8.3,0,12,3.7,14.2,8c3.8-5.3,8.9-8,16.7-8c5.6,0,10,1.9,12.6,5
	s3.9,7.8,3.9,14.7v30.3h-11.1V39.7c0-4.7-0.5-8-2.1-10c-1.4-1.9-3.6-2.9-7.1-2.9c-8.1,0-10.6,6.6-10.6,15.2v25.6h-11.1V39.7
	c0-4.8-0.5-8.1-2.1-10.1c-1.5-1.8-3.7-2.8-7-2.8c-8.2,0-10.7,6.6-10.7,15.2v25.6h-11.1L484.9,18.6L484.9,18.6z"/>
<path class="st0" d="M578.4,1.2v11.2h-11.1V1.2H578.4z M578.4,18.6v49h-11.1v-49C567.3,18.6,578.4,18.6,578.4,18.6z"/>
<path class="st0" d="M631.7,34.4L621,35.9c-1-5.3-5-9.4-11.6-9.4c-7.2,0-12.6,5.5-12.6,16.6s5.5,16.8,12.6,16.8
	c5.6,0,10.5-2.8,11.9-9.5l10.8,1.4c-2.5,10.9-11.9,17-22.9,17c-15.1,0-23.8-10.7-23.8-25.6s8.9-25.6,24.3-25.6
	C620.8,17.6,629.6,24.1,631.7,34.4z"/>
<path class="st0" d="M636.8,33.5c0.7-9.7,8.6-16.1,21.5-16.1c14.2,0,20.3,5.1,20.3,18.8c0,3.2-0.2,11.4-0.2,14.1
	c0,5.8,0.3,11.6,1,17.3H669l-0.3-5.9c-3.1,4.6-7.9,7.1-15.9,7.1c-11.3,0-17.7-7.6-17.7-16c-0.1-4.2,1.9-8.2,5.4-10.6
	c4.4-3,10.4-4.2,17.9-5.1l9.2-1v-1.7c0-6.7-4-8.7-9.9-8.7c-6.3,0-10.1,2.9-10.6,8.1L636.8,33.5z M668,44.2l-9.3,1
	c-8.4,0.9-12.1,3.2-12.1,7.7c0,4.2,3.3,7.2,8.6,7.2c6.5,0,12.8-3.7,12.8-12.9C668,47.2,668,44.2,668,44.2z"/>
<path class="st0" d="M699.1,67.6H688V1.2h11.1L699.1,67.6L699.1,67.6z"/>
<path class="st0" d="M373.8,132.1c-2.8,13.2-13.5,21.7-29.1,21.7c-19.7,0-31.1-13.5-31.1-34.6S325.8,85,345.3,85
	c15,0,25.6,8.5,28.3,21.7l-11.3,1.7c-2-9.1-8.6-13.7-17.4-13.7c-10.7,0-19.1,8.2-19.1,24.5s8.2,24.9,19,24.9
	c9.1,0,15.6-4.5,17.7-13.7L373.8,132.1z"/>
<path class="st0" d="M412.7,125.1c0-5.2-0.5-8.8-2.7-11c-1.8-1.6-4.3-2.4-6.7-2.3c-8.5,0-11.6,6.4-11.6,15.4v25.4h-11.1V86.2h11.1
	v23.5c2.8-4.4,8.1-7.1,15.1-7.1c6.3,0,11,2.1,13.8,6.1c2.1,3.1,3.2,7.3,3.2,13.6v30.3h-11.1L412.7,125.1L412.7,125.1z"/>
<path class="st0" d="M430,128.2c0-15.1,9.7-25.6,24.2-25.6c15.6,0,24.7,11.9,23.8,28.9h-36.8c0.2,8.1,5.6,13.4,13.1,13.4
	c7,0,10.5-3.3,12.2-7.7l10.7,1.4c-2.3,7.3-9.4,15.2-22.7,15.2C438.2,153.8,430,142.5,430,128.2z M441.2,123.3h25.5
	c-0.3-7.5-5.7-12.2-12.4-12.2C447.8,111.1,441.6,114.8,441.2,123.3L441.2,123.3z"/>
<path class="st0" d="M528.5,119.4l-10.7,1.5c-1-5.3-5-9.4-11.6-9.4c-7.2,0-12.6,5.5-12.6,16.6s5.5,16.8,12.6,16.8
	c5.6,0,10.5-2.8,11.9-9.5l10.8,1.4c-2.5,10.9-11.9,17-22.9,17c-15.1,0-23.8-10.7-23.8-25.6s8.9-25.6,24.3-25.6
	C517.6,102.6,526.4,109.1,528.5,119.4z"/>
<path class="st0" d="M546.4,86.2v36.7l18.5-19.3h13.2l-17.6,18.3l18.9,30.7h-12.8l-13.8-22.7l-6.4,6.7v16h-11.1V86.2H546.4
	L546.4,86.2z"/>
<path class="st0" d="M578.8,128.2c0-15.1,9.7-25.6,24.2-25.6c15.6,0,24.7,11.9,23.8,28.9H590c0.2,8.1,5.6,13.4,13.1,13.4
	c7,0,10.5-3.3,12.2-7.7l10.7,1.4c-2.3,7.3-9.4,15.2-22.7,15.2C587,153.8,578.8,142.5,578.8,128.2z M590,123.3h25.5
	c-0.3-7.5-5.7-12.2-12.4-12.2C596.6,111.1,590.4,114.8,590,123.3L590,123.3z"/>
<path class="st0" d="M660.8,114.6c-1.7-0.2-3.4-0.3-5.1-0.3c-6.9,0-10.9,3.1-10.9,13.1v25.2h-11.1v-49h10.9v8.1
	c2.7-5.3,7.5-8.1,13.5-8.2c0.9,0,1.8,0.1,2.7,0.2L660.8,114.6L660.8,114.6z"/>
</svg>
